<svg width="72" height="72" viewBox="0 0 72 72" fill="none" xmlns="http://www.w3.org/2000/svg"><path d="M0 36L8.12903 27.871L16.2581 36L8.12903 44.129L0 36Z" fill="#F0B90B"></path><path d="M13.9355 22.0645L36 0L58.0645 22.0645L49.9355 30.1935L36 16.2581L22.0645 30.1935L13.9355 22.0645Z" fill="#F0B90B"></path><path d="M27.871 36L36 27.871L44.129 36L36 44.129L27.871 36Z" fill="#F0B90B"></path><path d="M22.0645 41.8065L13.9355 49.9355L36 72L58.0645 49.9355L49.9355 41.8065L36 55.7419L22.0645 41.8065Z" fill="#F0B90B"></path><path d="M55.7419 36L63.871 27.871L72 36L63.871 44.129L55.7419 36Z" fill="#F0B90B"></path></svg>
